<?xml version="1.0" standalone="no"?>
<!DOCTYPE svg PUBLIC "-//W3C//DTD SVG 20010904//EN"
 "http://www.w3.org/TR/2001/REC-SVG-20010904/DTD/svg10.dtd">
<svg version="1.0" xmlns="http://www.w3.org/2000/svg" stroke="currentColor" fill="#d9d9d9" stroke-width="0"
 width="2em" height="1em" viewBox="0 0 444.000000 188.000000"
 preserveAspectRatio="xMidYMid meet">

<g transform="translate(0.000000,188.000000) scale(0.100000,-0.100000)" fill="#d9d9d9" stroke="none">
<path d="M257 1543 c-4 -3 -7 -32 -7 -64 l0 -58 98 -3 97 -3 3 -332 2 -333
-90 0 -90 0 0 -65 0 -65 385 0 385 0 2 186 3 187 27 20 c18 13 34 18 51 13 55
-13 57 -22 57 -222 l0 -184 119 0 120 0 3 185 c3 202 5 209 65 221 26 5 37 1
57 -19 26 -26 26 -26 26 -206 l0 -181 163 -2 162 -3 0 -55 0 -55 -85 -7 c-108
-8 -350 -10 -350 -2 0 3 18 32 41 66 35 50 38 59 20 53 -40 -12 -691 -300
-691 -305 0 -6 643 -303 666 -308 10 -3 1 17 -24 55 -40 59 -78 151 -66 162 3
3 504 6 1112 6 l1107 1 104 22 c169 37 265 84 351 172 97 99 142 228 142 405
0 213 -42 336 -132 390 -50 29 -178 29 -237 -1 l-43 -21 0 158 0 159 -125 0
-125 0 0 -445 0 -445 125 0 125 0 0 184 c0 154 3 187 16 200 24 25 61 30 88
13 29 -19 36 -58 36 -197 0 -90 -4 -112 -24 -157 -30 -63 -85 -106 -171 -132
-142 -44 -228 -47 -1127 -34 l-488 6 0 79 c0 43 2 78 5 78 3 0 19 -10 36 -22
41 -30 165 -38 222 -13 57 24 122 89 147 148 31 70 38 185 16 259 -20 69 -73
140 -131 174 -80 46 -194 43 -267 -8 l-28 -19 0 25 0 26 -120 0 -120 0 0 -240
0 -240 -45 0 -45 0 0 168 c0 157 -2 172 -23 213 -62 117 -248 145 -355 53
l-39 -33 -24 26 c-69 74 -245 85 -318 19 -23 -21 -29 -20 -33 7 -3 21 -7 22
-115 25 l-113 3 0 -241 0 -240 -45 0 -45 0 0 335 0 335 85 0 85 0 0 65 0 65
-303 0 c-167 0 -307 -3 -310 -7z m2058 -537 c88 -88 -10 -240 -118 -185 -62
32 -78 122 -31 178 22 27 32 31 75 31 39 0 55 -5 74 -24z"/>
<path d="M2704 1534 c-42 -21 -64 -62 -64 -123 0 -44 5 -56 34 -89 33 -35 38
-37 96 -37 58 0 63 2 96 37 29 33 34 45 34 89 0 30 -7 63 -17 80 -32 54 -116
75 -179 43z"/>
<path d="M3128 1226 c-108 -29 -167 -100 -168 -199 0 -106 56 -159 191 -183
100 -17 119 -23 119 -34 0 -24 -87 -26 -195 -4 -42 9 -78 14 -81 12 -2 -3 -9
-42 -15 -88 -13 -97 -16 -94 84 -111 106 -17 272 -8 323 19 86 45 125 126 105
218 -20 86 -71 120 -225 144 -42 7 -79 17 -83 23 -21 33 108 36 247 5 11 -2
17 20 25 90 12 104 19 94 -79 111 -78 14 -189 13 -248 -3z"/>
<path d="M2650 925 l0 -305 120 0 120 0 0 305 0 305 -120 0 -120 0 0 -305z"/>
</g>
</svg>
